HIERARCHY
ROOT Hips
{
    OFFSET 0.000000 0.000000 0.000000
    CHANNELS 6 Xposition Yposition Zposition Zrotation Xrotation Yrotation
    JOINT Spine
    {
        OFFSET 0.000003 8.467234 0.000016
        CHANNELS 3 Zrotation Xrotation Yrotation
        JOINT Spine1
        {
            OFFSET 0.000002 24.159163 0.000009
            CHANNELS 3 Zrotation Xrotation Yrotation
            JOINT Neck
            {
                OFFSET -0.000003 26.323065 -0.000017
                CHANNELS 3 Zrotation Xrotation Yrotation
                JOINT Head
                {
                    OFFSET -0.000001 16.024313 2.035161
                    CHANNELS 3 Zrotation Xrotation Yrotation
                    End Site
                    {
                        OFFSET 0.000000 20.351660 0.000000
                    }
                }
            }
            JOINT LeftShoulder
            {
                OFFSET 4.036570 20.304853 -0.371907
                CHANNELS 3 Zrotation Xrotation Yrotation
                JOINT LeftArm
                {
                    OFFSET 12.502551 -0.000005 0.000000
                    CHANNELS 3 Zrotation Xrotation Yrotation
                    JOINT LeftForeArm
                    {
                        OFFSET 31.806908 0.000003 0.000007
                        CHANNELS 3 Zrotation Xrotation Yrotation
                        JOINT LeftHand
                        {
                            OFFSET 24.843222 0.000000 0.000003
                            CHANNELS 3 Zrotation Xrotation Yrotation
                            JOINT LeftHandThumb1
                            {
                                OFFSET 2.126759 -2.416759 3.383464
                                CHANNELS 3 Zrotation Xrotation Yrotation
                                JOINT LeftHandThumb2
                                {
                                    OFFSET 3.212138 -0.000008 -0.000002
                                    CHANNELS 3 Zrotation Xrotation Yrotation
                                    JOINT LeftHandThumb3
                                    {
                                        OFFSET 2.745443 -0.000001 -0.000001
                                        CHANNELS 3 Zrotation Xrotation Yrotation
                                        End Site
                                        {
                                            OFFSET 2.793713 0.000000 0.000000
                                        }
                                    }
                                }
                            }
                            JOINT LeftHandIndex1
                            {
                                OFFSET 8.700325 -0.000002 3.383456
                                CHANNELS 3 Zrotation Xrotation Yrotation
                                JOINT LeftHandIndex2
                                {
                                    OFFSET 4.833524 0.000003 0.000005
                                    CHANNELS 3 Zrotation Xrotation Yrotation
                                    JOINT LeftHandIndex3
                                    {
                                        OFFSET 2.416751 -0.000003 -0.000004
                                        CHANNELS 3 Zrotation Xrotation Yrotation
                                        End Site
                                        {
                                            OFFSET 2.459254 0.000000 0.000000
                                        }
                                    }
                                }
                            }
                            JOINT LeftHandMiddle1
                            {
                                OFFSET 8.700338 0.000000 1.121374
                                CHANNELS 3 Zrotation Xrotation Yrotation
                                JOINT LeftHandMiddle2
                                {
                                    OFFSET 5.316879 0.000001 0.000002
                                    CHANNELS 3 Zrotation Xrotation Yrotation
                                    JOINT LeftHandMiddle3
                                    {
                                        OFFSET 2.900104 0.000001 0.000003
                                        CHANNELS 3 Zrotation Xrotation Yrotation
                                        End Site
                                        {
                                            OFFSET 2.951103 0.000000 0.000000
                                        }
                                    }
                                }
                            }
                            JOINT LeftHandRing1
                            {
                                OFFSET 8.216987 0.000000 -1.121377
                                CHANNELS 3 Zrotation Xrotation Yrotation
                                JOINT LeftHandRing2
                                {
                                    OFFSET 4.833524 0.000001 0.000004
                                    CHANNELS 3 Zrotation Xrotation Yrotation
                                    JOINT LeftHandRing3
                                    {
                                        OFFSET 2.416751 -0.000001 -0.000005
                                        CHANNELS 3 Zrotation Xrotation Yrotation
                                        End Site
                                        {
                                            OFFSET 2.459254 0.000000 0.000000
                                        }
                                    }
                                }
                            }
                            JOINT LeftHandPinky1
                            {
                                OFFSET 7.733622 0.000000 -3.383459
                                CHANNELS 3 Zrotation Xrotation Yrotation
                                JOINT LeftHandPinky2
                                {
                                    OFFSET 3.866815 0.000001 -0.000001
                                    CHANNELS 3 Zrotation Xrotation Yrotation
                                    JOINT LeftHandPinky3
                                    {
                                        OFFSET 1.933396 -0.000001 -0.000003
                                        CHANNELS 3 Zrotation Xrotation Yrotation
                                        End Site
                                        {
                                            OFFSET 1.967405 0.000000 0.000000
                                        }
                                    }
                                }
                            }
                        }
                    }
                }
            }
            JOINT RightShoulder
            {
                OFFSET -4.036568 20.304852 -0.371901
                CHANNELS 3 Zrotation Xrotation Yrotation
                JOINT RightArm
                {
                    OFFSET -12.502554 0.000003 -0.000011
                    CHANNELS 3 Zrotation Xrotation Yrotation
                    JOINT RightForeArm
                    {
                        OFFSET -31.806915 -0.000006 -0.000004
                        CHANNELS 3 Zrotation Xrotation Yrotation
                        JOINT RightHand
                        {
                            OFFSET -24.843237 0.000007 0.000003
                            CHANNELS 3 Zrotation Xrotation Yrotation
                            JOINT RightHandThumb1
                            {
                                OFFSET -2.126748 -2.416756 3.383465
                                CHANNELS 3 Zrotation Xrotation Yrotation
                                JOINT RightHandThumb2
                                {
                                    OFFSET -3.212134 0.000005 -0.000002
                                    CHANNELS 3 Zrotation Xrotation Yrotation
                                    JOINT RightHandThumb3
                                    {
                                        OFFSET -2.745437 0.000004 -0.000002
                                        CHANNELS 3 Zrotation Xrotation Yrotation
                                        End Site
                                        {
                                            OFFSET -2.793713 0.000000 0.000000
                                        }
                                    }
                                }
                            }
                            JOINT RightHandIndex1
                            {
                                OFFSET -8.700332 0.000004 3.383467
                                CHANNELS 3 Zrotation Xrotation Yrotation
                                JOINT RightHandIndex2
                                {
                                    OFFSET -4.833527 -0.000001 0.000001
                                    CHANNELS 3 Zrotation Xrotation Yrotation
                                    JOINT RightHandIndex3
                                    {
                                        OFFSET -2.416753 -0.000005 -0.000004
                                        CHANNELS 3 Zrotation Xrotation Yrotation
                                        End Site
                                        {
                                            OFFSET -2.459254 0.000000 0.000000
                                        }
                                    }
                                }
                            }
                            JOINT RightHandMiddle1
                            {
                                OFFSET -8.700326 -0.000007 1.121368
                                CHANNELS 3 Zrotation Xrotation Yrotation
                                JOINT RightHandMiddle2
                                {
                                    OFFSET -5.316862 -0.000001 -0.000003
                                    CHANNELS 3 Zrotation Xrotation Yrotation
                                    JOINT RightHandMiddle3
                                    {
                                        OFFSET -2.900109 0.000004 0.000001
                                        CHANNELS 3 Zrotation Xrotation Yrotation
                                        End Site
                                        {
                                            OFFSET -2.951103 0.000000 0.000000
                                        }
                                    }
                                }
                            }
                            JOINT RightHandRing1
                            {
                                OFFSET -8.216981 -0.000001 -1.121373
                                CHANNELS 3 Zrotation Xrotation Yrotation
                                JOINT RightHandRing2
                                {
                                    OFFSET -4.833527 -0.000001 0.000002
                                    CHANNELS 3 Zrotation Xrotation Yrotation
                                    JOINT RightHandRing3
                                    {
                                        OFFSET -2.416753 -0.000005 -0.000004
                                        CHANNELS 3 Zrotation Xrotation Yrotation
                                        End Site
                                        {
                                            OFFSET -2.459254 0.000000 0.000000
                                        }
                                    }
                                }
                            }
                            JOINT RightHandPinky1
                            {
                                OFFSET -7.733634 -0.000003 -3.383462
                                CHANNELS 3 Zrotation Xrotation Yrotation
                                JOINT RightHandPinky2
                                {
                                    OFFSET -3.866805 0.000002 -0.000002
                                    CHANNELS 3 Zrotation Xrotation Yrotation
                                    JOINT RightHandPinky3
                                    {
                                        OFFSET -1.933412 0.000003 0.000006
                                        CHANNELS 3 Zrotation Xrotation Yrotation
                                        End Site
                                        {
                                            OFFSET -1.967405 0.000000 0.000000
                                        }
                                    }
                                }
                            }
                        }
                    }
                }
            }
        }
    }
    JOINT LeftUpLeg
    {
        OFFSET 10.175829 0.000001 0.000011
        CHANNELS 3 Zrotation Xrotation Yrotation
        JOINT LeftLeg
        {
            OFFSET -0.000002 -42.882950 -0.000005
            CHANNELS 3 Zrotation Xrotation Yrotation
            JOINT LeftFoot
            {
                OFFSET 0.000000 -39.006771 -0.000007
                CHANNELS 3 Zrotation Xrotation Yrotation
                JOINT LeftToeBase
                {
                    OFFSET -0.000001 -6.614285 15.263753
                    CHANNELS 3 Zrotation Xrotation Yrotation
                    End Site
                    {
                        OFFSET 0.000000 0.000000 4.070332
                    }
                }
            }
        }
    }
    JOINT RightUpLeg
    {
        OFFSET -10.175829 -0.000001 -0.000011
        CHANNELS 3 Zrotation Xrotation Yrotation
        JOINT RightLeg
        {
            OFFSET 0.000000 -42.882946 0.000009
            CHANNELS 3 Zrotation Xrotation Yrotation
            JOINT RightFoot
            {
                OFFSET -0.000001 -39.006771 -0.000004
                CHANNELS 3 Zrotation Xrotation Yrotation
                JOINT RightToeBase
                {
                    OFFSET -0.000001 -6.614286 15.263737
                    CHANNELS 3 Zrotation Xrotation Yrotation
                    End Site
                    {
                        OFFSET 0.000000 0.000000 4.070332
                    }
                }
            }
        }
    }
}
MOTION
Frames:    4
Frame Time:    0.002778
13.194035    84.118469    227.509384    2.142086    -3.249352    0.515193    0.534466    7.530889    2.139335    2.672295    7.523114    1.859260    7.450498    2.948058    -1.994446    7.450497    2.948051    -1.994446    -1.940560    -1.049357    2.331789    -57.321419    6.917315    -9.524269    -22.934015    13.004832    -125.155716    20.798450    8.184018    21.230879    47.448215    38.866440    -34.355030    -35.000000    -0.000002    0.000003    -0.000000    0.000000    -0.000000    -0.000000    10.000000    0.000003    -0.000000    0.000000    -0.000000    -0.000000    0.000000    -0.000000    -0.000000    0.000000    -0.000000    -0.000000    0.000000    -0.000000    -0.000000    0.000000    -0.000000    -0.000000    0.000000    -0.000000    -0.000000    0.000000    -0.000000    -0.000000    0.000000    -0.000000    0.000011    -9.999990    0.000011    -0.000000    0.000000    -0.000000    -0.000000    0.000000    -0.000000    -2.754205    2.459367    -0.712640    39.951649    14.200542    37.863285    -17.022924    -18.257580    54.764553    -14.580603    9.247739    -31.567024    -47.448208    38.866428    34.355030    34.999992    0.000001    0.000000    -0.000000    0.000000    -0.000000    -0.000002    10.000001    -0.000000    -0.000000    0.000000    -0.000000    -0.000000    0.000000    -0.000000    -0.000000    0.000000    -0.000000    -0.000000    0.000000    -0.000000    -0.000000    0.000000    -0.000000    -0.000000    0.000000    -0.000000    -0.000000    0.000000    -0.000000    -0.000000    0.000000    -0.000000    0.000001    -9.999998    0.000001    -0.000000    0.000000    -0.000000    -0.000000    0.000000    -0.000000    4.049787    -19.329363    -4.244712    -0.000004    62.869843    0.000003    -12.873801    -41.847076    0.218835    -0.000001    -0.932684    0.000001    -25.380596    -21.845154    -1.409337    0.000006    51.360722    -0.000003    22.865377    -22.773571    -0.371755    0.000000    -0.933778    0.000001    
13.214739    84.158257    227.539307    2.092918    -3.294732    0.458265    0.530065    7.513262    2.128952    2.650295    7.505635    1.851829    7.425430    2.954328    -1.960809    7.425431    2.954329    -1.960811    -1.985067    -1.045573    2.359777    -57.306141    6.914416    -9.480694    -22.893677    12.961709    -125.100243    20.768602    8.181280    21.253599    47.448204    38.866428    -34.355030    -35.000000    -0.000001    -0.000002    -0.000000    0.000000    -0.000000    -0.000000    10.000010    -0.000000    -0.000000    0.000000    -0.000000    -0.000000    0.000000    -0.000000    -0.000000    0.000000    -0.000000    -0.000000    0.000000    -0.000000    -0.000000    0.000000    -0.000000    -0.000000    0.000000    -0.000000    -0.000000    0.000000    -0.000000    -0.000000    0.000000    -0.000000    -0.000008    -10.000001    -0.000009    -0.000000    0.000000    -0.000000    -0.000000    0.000000    -0.000000    -2.882997    2.458348    -0.755724    40.253368    14.628882    37.513870    -16.962236    -18.409334    54.963600    -14.546853    9.242801    -31.616915    -47.448208    38.866432    34.355019    35.000004    0.000008    0.000016    -0.000000    0.000000    -0.000000    -0.000002    10.000001    -0.000002    -0.000000    0.000000    -0.000000    -0.000000    0.000000    -0.000000    -0.000000    0.000000    -0.000000    -0.000000    0.000000    -0.000000    -0.000000    0.000000    -0.000000    -0.000000    0.000000    -0.000000    -0.000000    0.000000    -0.000000    -0.000000    0.000000    -0.000000    0.000001    -10.000002    0.000002    -0.000000    0.000000    -0.000000    -0.000000    0.000000    -0.000000    4.082214    -19.212734    -4.222829    -0.000006    62.789780    0.000005    -12.831965    -41.836082    0.278120    -0.000000    -0.931735    0.000001    -25.306690    -21.735008    -1.352779    0.000010    51.201469    -0.000004    22.838026    -22.713100    -0.394767    0.000000    -0.938103    0.000001    
13.235140    84.198273    227.567978    2.043798    -3.338200    0.400020    0.526326    7.494609    2.120185    2.631600    7.487110    1.845695    7.395903    2.957396    -1.932290    7.395899    2.957393    -1.932291    -2.033811    -1.039018    2.381100    -57.290382    6.911066    -9.436936    -22.853600    12.915593    -125.038429    20.747993    8.177374    21.264296    47.448212    38.866432    -34.355038    -34.999996    -0.000006    -0.000011    -0.000000    0.000000    -0.000000    0.000000    10.000000    -0.000002    -0.000000    0.000000    -0.000000    -0.000000    0.000000    -0.000000    -0.000000    0.000000    -0.000000    -0.000000    0.000000    -0.000000    -0.000000    0.000000    -0.000000    -0.000000    0.000000    -0.000000    -0.000000    0.000000    -0.000000    -0.000000    0.000000    -0.000000    -0.000005    -10.000001    -0.000016    -0.000000    0.000000    -0.000000    -0.000000    0.000000    -0.000000    -3.006335    2.450694    -0.790832    40.572739    15.034168    37.151382    -16.885452    -18.576748    55.177116    -14.522753    9.237739    -31.649464    -47.448219    38.866432    34.355042    35.000000    0.000001    0.000006    -0.000000    0.000000    -0.000000    0.000006    9.999995    0.000009    -0.000000    0.000000    -0.000000    -0.000000    0.000000    -0.000000    -0.000000    0.000000    -0.000000    -0.000000    0.000000    -0.000000    -0.000000    0.000000    -0.000000    -0.000000    0.000000    -0.000000    -0.000000    0.000000    -0.000000    -0.000000    0.000000    -0.000000    0.000003    -10.000003    0.000005    -0.000000    0.000000    -0.000000    -0.000000    0.000000    -0.000000    4.114887    -19.097387    -4.201200    -0.000003    62.705261    0.000002    -12.793178    -41.820492    0.338359    0.000000    -0.936084    -0.000001    -25.231401    -21.626921    -1.290226    -0.000001    51.038483    0.000000    22.813541    -22.648081    -0.421034    0.000000    -0.942444    0.000001    
13.251044    84.238586    227.596924    1.995148    -3.380706    0.346917    0.522095    7.477146    2.110766    2.610443    7.469779    1.839111    7.369884    2.956808    -1.896298    7.369883    2.956810    -1.896298    -2.075581    -1.033309    2.398708    -57.273746    6.912093    -9.395256    -22.834425    12.881529    -124.979256    20.725609    8.165954    21.260269    47.448200    38.866432    -34.355026    -35.000008    0.000000    0.000005    -0.000000    0.000000    -0.000000    -0.000004    10.000002    0.000004    -0.000000    0.000000    -0.000000    -0.000000    0.000000    -0.000000    -0.000000    0.000000    -0.000000    -0.000000    0.000000    -0.000000    -0.000000    0.000000    -0.000000    -0.000000    0.000000    -0.000000    -0.000000    0.000000    -0.000000    -0.000000    0.000000    -0.000000    -0.000003    -9.999999    0.000008    -0.000000    0.000000    -0.000000    -0.000000    0.000000    -0.000000    -3.140815    2.446297    -0.821262    40.887890    15.445653    36.786537    -16.764952    -18.766800    55.412704    -14.516083    9.239495    -31.670248    -47.448215    38.866440    34.355038    35.000004    0.000001    0.000009    -0.000000    0.000000    -0.000000    -0.000000    10.000003    -0.000006    -0.000000    0.000000    -0.000000    -0.000000    0.000000    -0.000000    -0.000000    0.000000    -0.000000    -0.000000    0.000000    -0.000000    -0.000000    0.000000    -0.000000    -0.000000    0.000000    -0.000000    -0.000000    0.000000    -0.000000    -0.000000    0.000000    -0.000000    0.000001    -10.000000    0.000001    -0.000000    0.000000    -0.000000    -0.000000    0.000000    -0.000000    4.149710    -18.982359    -4.182285    0.000004    62.618881    -0.000003    -12.756663    -41.805527    0.393304    -0.000000    -0.938317    -0.000000    -25.152225    -21.518547    -1.226857    -0.000004    50.882305    0.000004    22.789484    -22.593395    -0.448301    0.000000    -0.944959    -0.000001    
